<?xml version="1.0" standalone="no"?>
<!DOCTYPE svg PUBLIC "-//W3C//DTD SVG 20010904//EN"
 "http://www.w3.org/TR/2001/REC-SVG-20010904/DTD/svg10.dtd">
<svg version="1.0" xmlns="http://www.w3.org/2000/svg"
 width="300.000000pt" height="300.000000pt" viewBox="0 0 300.000000 300.000000"
 preserveAspectRatio="xMidYMid meet">
<metadata>
Created by potrace 1.11, written by Peter Selinger 2001-2013
</metadata>
<g transform="translate(0.000000,300.000000) scale(0.100000,-0.100000)"
fill="#000000" stroke="none">
<path d="M1407 2714 c-163 -31 -281 -111 -360 -242 -177 -299 28 -680 358
-667 104 5 182 39 251 111 168 176 80 470 -147 492 -148 14 -268 -133 -199
-245 26 -43 66 -62 107 -51 42 11 52 42 23 73 -22 23 -22 25 -6 50 12 18 25
25 50 25 97 0 140 -134 72 -223 -78 -102 -237 -105 -335 -5 -119 120 -107 316
25 437 90 82 216 115 331 85 334 -86 433 -505 179 -757 -77 -76 -133 -103
-399 -193 -122 -41 -359 -121 -527 -178 -326 -110 -360 -124 -436 -182 -363
-276 -298 -819 117 -975 70 -26 199 -32 277 -12 154 40 285 163 322 303 17 62
21 160 9 206 -59 228 -293 352 -486 258 -97 -47 -152 -126 -161 -230 -15 -193
201 -321 318 -188 54 62 33 159 -33 152 -25 -2 -33 -8 -36 -28 -6 -46 -40 -52
-76 -15 -47 46 -20 136 49 169 128 61 275 -46 276 -200 0 -108 -59 -203 -158
-251 -50 -25 -68 -28 -147 -28 -79 1 -97 4 -144 29 -132 68 -211 205 -206 356
10 325 363 520 670 370 74 -36 133 -82 335 -264 44 -39 116 -103 199 -175 92
-79 175 -154 181 -160 3 -3 52 -47 110 -97 158 -137 237 -182 364 -209 123
-25 260 -8 370 46 273 136 384 443 255 708 -76 155 -253 263 -419 255 -73 -3
-111 -13 -175 -44 -133 -64 -215 -192 -217 -337 -4 -265 290 -426 477 -262
131 115 82 331 -76 333 -39 1 -53 -4 -73 -24 -24 -25 -29 -39 -27 -73 1 -21
41 -39 57 -26 18 14 43 0 50 -28 14 -53 -66 -110 -129 -92 -68 19 -112 71
-123 144 -13 87 41 181 130 228 57 30 172 30 236 1 203 -94 248 -374 89 -548
-267 -292 -750 -87 -765 324 -2 47 3 114 11 151 8 36 16 77 18 90 4 20 46 228
61 304 10 46 68 342 73 365 2 14 13 66 23 115 32 146 34 166 33 260 0 105 -20
181 -70 276 -82 159 -259 280 -428 295 -27 3 -57 6 -65 8 -8 1 -46 -3 -83 -10z
m378 -1195 c-7 -36 -16 -79 -18 -95 -3 -16 -13 -67 -22 -114 -9 -47 -19 -94
-21 -105 -2 -11 -17 -85 -33 -165 -17 -80 -33 -161 -36 -180 -3 -19 -7 -36 -9
-37 -1 -2 -34 25 -73 60 -38 34 -96 85 -128 112 -81 70 -156 137 -175 155 -9
8 -59 53 -113 99 -53 46 -96 86 -94 88 5 4 731 251 734 249 1 -1 -4 -31 -12
-67z"/>
</g>
</svg>
